<?xml version="1.0" encoding="UTF-8"?>
<!DOCTYPE svg PUBLIC "-//W3C//DTD SVG 1.1//EN" "http://www.w3.org/Graphics/SVG/1.1/DTD/svg11.dtd">
<!-- Creator: CorelDRAW 2018 (64-Bit) -->
<svg xmlns="http://www.w3.org/2000/svg" xml:space="preserve" width="190px" height="52px" version="1.1" style="shape-rendering:geometricPrecision; text-rendering:geometricPrecision; image-rendering:optimizeQuality; fill-rule:evenodd; clip-rule:evenodd"
viewBox="0 0 261600 71660"
 xmlns:xlink="http://www.w3.org/1999/xlink">
 <defs>
  <style type="text/css">
   <![CDATA[
    .fil0 {fill:black;fill-rule:nonzero}
    .fil1 {fill:#DC0000;fill-rule:nonzero}
    .fil2 {fill:white;fill-rule:nonzero}
   ]]>
  </style>
 </defs>
 <g id="Layer_x0020_1">
  <metadata id="CorelCorpID_0Corel-Layer"/>
  <g id="_1965514306240">
   <path class="fil0" d="M74220 16860c-2260,2830 -5240,4240 -8930,4240 -1540,0 -2950,-260 -4240,-780 -1280,-520 -2380,-1240 -3290,-2160 -910,-920 -1620,-2030 -2130,-3310 -510,-1280 -770,-2700 -770,-4240 0,-1520 250,-2930 750,-4220 500,-1290 1210,-2420 2140,-3370 920,-950 2020,-1690 3300,-2220 1290,-530 2700,-800 4240,-800 1750,0 3360,290 4840,870 1480,580 2740,1590 3760,3040l-3520 3550c-560,-770 -1230,-1380 -2010,-1840 -780,-460 -1680,-690 -2680,-690 -840,0 -1590,140 -2250,420 -660,280 -1220,670 -1670,1170 -450,500 -800,1090 -1040,1760 -240,670 -360,1400 -360,2180 0,800 130,1540 380,2230 250,680 600,1270 1060,1770 470,500 1020,890 1670,1170 650,280 1380,420 2180,420 1160,0 2110,-200 2840,-610 730,-410 1450,-1060 2150,-1940l3580 3360zm1950 -16320l14430 0 0 4600 -9110 0 0 3100 7490 0 0 4330 -7490 0 0 3420 9740 0 0 4600 -15060 0 0 -20050zm17830 0l4840 0 7700 11180 0 -11180 5260 0 0 20050 -4540 0 -8000 -11510 0 11510 -5260 0 0 -20050zm26360 4660l-6160 0 0 -4660 17650 0 0 4660 -6100 0 0 15390 -5390 0 0 -15390zm13890 -4660l8300 0c1080,0 2060,140 2930,420 870,280 1620,700 2240,1250 620,550 1100,1240 1440,2060 340,820 520,1770 520,2850 0,1330 -300,2470 -880,3450 -580,970 -1350,1750 -2310,2330l4300 7690 -5710 0 -3400 -6820 -2230 0 0 6820 -5200 0 0 -20050zm7790 9050c700,0 1270,-220 1710,-650 440,-430 660,-1000 660,-1730 0,-760 -210,-1360 -630,-1800 -420,-440 -1010,-660 -1770,-660l-2560 0 0 4840 2590 0zm16950 -9050l6110 0 7090 20050 -5740 0 -1290 -4150 -6710 0 -1320 4150 -5500 0 7360 -20050zm5080 12030l-2220 -7370 -2310 7370 4530 0zm10230 -12030l5320 0 0 15360 9290 0 0 4690 -14610 0 0 -20050z"/>
   <path class="fil0" d="M65290 47540c-1500,0 -2890,-260 -4160,-790 -1270,-530 -2380,-1260 -3310,-2200 -930,-930 -1660,-2040 -2180,-3330 -520,-1300 -780,-2700 -780,-4230 0,-1520 260,-2930 780,-4220 520,-1290 1250,-2410 2180,-3340 930,-930 2040,-1660 3310,-2180 1270,-520 2660,-780 4160,-780 1500,0 2900,260 4180,780 1280,520 2380,1250 3310,2180 920,930 1640,2050 2160,3340 520,1290 780,2700 780,4220 0,1530 -260,2930 -780,4230 -520,1290 -1240,2400 -2160,3330 -930,940 -2030,1670 -3310,2200 -1280,530 -2680,790 -4180,790zm0 -4990c780,0 1480,-140 2090,-430 610,-290 1130,-690 1550,-1190 420,-500 740,-1090 960,-1770 220,-680 330,-1410 330,-2170 0,-760 -110,-1480 -330,-2160 -220,-680 -540,-1270 -960,-1780 -420,-500 -940,-890 -1550,-1180 -610,-290 -1310,-440 -2090,-440 -780,0 -1480,150 -2090,440 -610,290 -1130,680 -1550,1180 -420,510 -740,1100 -960,1780 -220,680 -330,1400 -330,2160 0,760 110,1490 330,2170 220,680 540,1270 960,1770 420,500 940,900 1550,1190 610,290 1310,430 2090,430zm14520 -1830c560,560 1290,1070 2200,1530 900,460 1890,700 2970,700 260,0 530,-30 810,-80 280,-50 530,-140 760,-260 220,-120 400,-280 540,-480 140,-200 210,-460 210,-780 0,-520 -270,-950 -800,-1290 -530,-340 -1310,-680 -2330,-1020l-1110 -360c-620,-200 -1250,-460 -1880,-790 -630,-320 -1200,-700 -1700,-1150 -500,-450 -910,-980 -1220,-1600 -310,-610 -460,-1320 -460,-2150 0,-920 170,-1770 510,-2570 340,-790 830,-1480 1490,-2070 650,-590 1450,-1050 2420,-1380 960,-330 2070,-500 3330,-500 980,0 1880,90 2680,270 800,180 1500,400 2100,660 600,260 1120,540 1540,850 420,300 740,570 960,810l-2710 3420c-700,-520 -1430,-940 -2190,-1270 -760,-330 -1540,-500 -2350,-500 -260,0 -520,30 -780,90 -260,60 -490,150 -710,270 -210,120 -380,280 -510,470 -130,190 -190,420 -190,700 0,300 70,560 220,780 150,230 360,420 620,580 260,160 580,300 950,430 370,130 760,270 1180,410l970 300c680,220 1370,470 2070,760 700,300 1330,690 1900,1180 560,490 1020,1100 1380,1830 360,730 540,1630 540,2690 0,920 -220,1780 -650,2560 -430,780 -1010,1450 -1740,2010 -730,560 -1590,1000 -2590,1310 -990,310 -2050,460 -3170,460 -2000,0 -3680,-260 -5030,-790 -1360,-530 -2500,-1250 -3450,-2150l3220 -3880zm16170 -13710l5330 0 0 20050 -5330 0 0 -20050zm19150 8600l8240 0 0 9050c-1200,1020 -2580,1760 -4130,2210 -1560,450 -3110,670 -4680,670 -1620,0 -3080,-240 -4370,-730 -1290,-490 -2390,-1190 -3290,-2110 -900,-910 -1590,-2020 -2060,-3320 -470,-1300 -710,-2760 -710,-4390 0,-1520 260,-2930 770,-4220 510,-1290 1230,-2410 2150,-3340 920,-930 2020,-1660 3290,-2180 1270,-520 2680,-780 4220,-780 1670,0 3220,280 4680,830 1450,550 2670,1470 3650,2750l-3460 3490c-620,-630 -1280,-1140 -2000,-1540 -710,-400 -1530,-600 -2480,-600 -860,0 -1620,150 -2280,450 -660,300 -1220,710 -1670,1220 -450,510 -800,1110 -1040,1800 -240,700 -360,1430 -360,2210 0,860 130,1640 390,2330 260,690 620,1290 1090,1780 460,490 1020,870 1680,1140 660,270 1400,400 2220,400 670,0 1300,-80 1900,-240 600,-160 1180,-440 1740,-840l0 -1920 -3490 0 0 -4120zm11400 -8600l5320 0 0 11760c0,1100 250,2000 760,2700 520,700 1360,1050 2550,1050 1180,0 2020,-350 2520,-1060 500,-710 750,-1610 750,-2690l0 -11760 5380 0 0 12240c0,1280 -210,2440 -630,3470 -420,1030 -1020,1910 -1790,2630 -770,720 -1680,1270 -2730,1650 -1050,380 -2210,570 -3470,570 -1270,0 -2430,-190 -3490,-570 -1060,-380 -1980,-920 -2750,-1630 -770,-720 -1370,-1590 -1790,-2620 -420,-1030 -630,-2200 -630,-3500l0 -12240zm20770 0l8300 0c1080,0 2060,140 2930,420 870,280 1620,700 2240,1250 620,550 1100,1240 1440,2060 340,820 510,1770 510,2860 0,1320 -290,2470 -870,3440 -580,970 -1350,1750 -2310,2330l4290 7690 -5710 0 -3390 -6820 -2230 0 0 6820 -5200 0 0 -20050zm7790 9050c700,0 1270,-210 1710,-650 440,-430 660,-1000 660,-1720 0,-770 -210,-1370 -630,-1810 -420,-440 -1010,-660 -1770,-660l-2560 0 0 4840 2590 0zm16950 -9050l6100 0 7100 20050 -5740 0 -1300 -4140 -6700 0 -1320 4140 -5500 0 7360 -20050zm5080 12030l-2220 -7370 -2320 7370 4540 0zm10220 -12030l4840 0 7700 11190 0 -11190 5260 0 0 20050 -4540 0 -8000 -11510 0 11510 -5260 0 0 -20050zm23060 14220c380,440 850,830 1400,1170 550,340 1190,520 1910,520 920,0 1570,-250 1950,-740 380,-490 570,-1170 570,-2030l0 -13140 5320 0 0 13740c0,1080 -180,2050 -550,2900 -370,850 -890,1570 -1550,2170 -660,590 -1440,1030 -2330,1330 -890,300 -1860,450 -2900,450 -1320,0 -2610,-250 -3850,-760 -1240,-510 -2280,-1290 -3130,-2330l3160 -3280zm14580 -14220l14430 0 0 4600 -9110 0 0 3100 7490 0 0 4330 -7490 0 0 3420 9740 0 0 4600 -15060 0 0 -20050z"/>
   <path class="fil0" d="M247150 46480c-70,80 -160,170 -270,260 -100,80 -220,160 -360,240 -140,70 -300,130 -470,180 -170,40 -370,70 -580,70 -310,0 -610,-70 -910,-190 -290,-130 -560,-320 -790,-570 -230,-250 -420,-550 -570,-910 -140,-360 -210,-780 -210,-1240 0,-440 60,-830 190,-1160 130,-340 290,-620 480,-850 160,-190 340,-350 530,-480 190,-130 390,-240 580,-320 200,-80 390,-140 580,-180 180,-40 340,-50 480,-50 180,0 330,0 450,10 120,20 230,30 330,50 90,20 180,50 260,80 80,30 170,70 280,110l0 -2510 1410 0 0 8020 -1380 0 -30 -560zm0 -3680c-140,-110 -300,-190 -480,-230 -180,-50 -410,-70 -690,-70 -280,0 -510,60 -700,160 -180,110 -340,260 -480,430 -120,160 -210,350 -280,560 -70,210 -100,440 -100,670 0,480 120,880 360,1200 240,320 590,480 1050,480 240,0 440,-40 610,-140 170,-90 300,-210 410,-350 100,-150 180,-300 230,-480 40,-170 70,-340 70,-500l0 -1730zm2920 2580l1720 0 0 1660 -1720 0 0 -1660zm6890 1100c-70,80 -160,170 -260,260 -110,80 -230,160 -370,240 -140,70 -300,130 -470,180 -170,40 -370,70 -580,70 -310,0 -610,-70 -900,-190 -300,-130 -570,-320 -800,-570 -230,-250 -420,-550 -560,-910 -150,-360 -220,-780 -220,-1240 0,-440 60,-830 190,-1160 130,-340 290,-620 480,-850 160,-190 340,-350 530,-480 200,-130 390,-240 590,-320 190,-80 380,-140 570,-180 180,-40 340,-50 480,-50 180,0 330,0 460,10 120,20 220,30 320,50 100,20 180,50 260,80 80,30 180,70 280,110l0 -2510 1410 0 0 8020 -1370 0 -40 -560zm0 -3680c-140,-110 -290,-190 -470,-230 -180,-50 -420,-70 -700,-70 -280,0 -510,60 -690,160 -190,110 -350,260 -480,430 -120,160 -220,350 -290,560 -60,210 -100,440 -100,670 0,480 120,880 360,1200 240,320 590,480 1050,480 240,0 440,-40 610,-140 170,-90 310,-210 410,-350 100,-150 180,-300 230,-480 50,-170 70,-340 70,-500l0 -1730zm2920 2580l1720 0 0 1660 -1720 0 0 -1660z"/>
   <path class="fil1" d="M32710 620l-32710 0 0 32710c0,7590 6210,13800 13800,13800l32710 0 0 -32710c0,-7590 -6210,-13800 -13800,-13800z"/>
   <path class="fil2" d="M32450 20500c-870,-860 -2060,-1390 -3380,-1390 -1320,0 -2520,530 -3380,1390l0 0c-860,870 -1390,2060 -1390,3380 0,1310 530,2510 1390,3370l0 0c860,870 2060,1400 3380,1400 1320,0 2510,-530 3380,-1400 860,-860 1390,-2050 1390,-3370 0,-1320 -530,-2520 -1390,-3380zm-3380 -5080c2330,0 4440,950 5970,2480l10 0c1530,1530 2480,3650 2480,5980 0,2330 -950,4440 -2480,5970l-10 10c-1530,1530 -3640,2470 -5970,2470 -2330,0 -4450,-940 -5980,-2470l0 0c-1530,-1530 -2480,-3650 -2480,-5980 0,-2340 950,-4450 2480,-5980l0 0c1530,-1530 3650,-2480 5980,-2480z"/>
   <path class="fil2" d="M17440 15420c1630,0 3160,460 4450,1270l0 0 -10 0c-870,870 -1580,1890 -2090,3030 -690,-390 -1490,-610 -2350,-610 -1320,0 -2510,530 -3370,1390l0 0c-860,870 -1400,2060 -1400,3380 0,1310 540,2510 1400,3370l0 0c860,870 2050,1400 3370,1400 860,0 1660,-220 2350,-620 510,1140 1220,2160 2090,3030l10 0 0 10c-1290,800 -2820,1260 -4450,1260 -2330,0 -4440,-940 -5970,-2470l-10 0c-1530,-1530 -2480,-3650 -2480,-5980 0,-2340 950,-4450 2480,-5980l10 0c1530,-1530 3640,-2480 5970,-2480z"/>
   <path class="fil0" d="M56100 66110c140,160 310,330 480,500 180,170 380,320 610,450 220,130 480,240 750,320 280,90 580,130 910,130 670,0 1200,-160 1580,-460 370,-310 560,-720 560,-1250 0,-560 -210,-980 -640,-1260 -430,-280 -1050,-510 -1860,-680 -440,-100 -830,-220 -1190,-390 -360,-160 -670,-370 -930,-610 -260,-250 -460,-530 -610,-850 -140,-320 -210,-690 -210,-1100 0,-380 70,-740 210,-1070 150,-340 360,-640 650,-890 280,-260 640,-460 1070,-620 430,-150 930,-230 1490,-230 500,0 930,60 1300,170 360,100 670,230 920,390 260,150 460,310 620,470 150,170 270,300 350,400l-980 910c-60,-80 -160,-170 -280,-290 -120,-120 -280,-230 -470,-340 -190,-120 -400,-210 -660,-290 -250,-70 -540,-110 -860,-110 -330,0 -610,40 -850,130 -230,90 -430,200 -580,340 -150,130 -260,290 -340,460 -70,180 -100,350 -100,520 0,260 50,480 160,660 110,180 260,330 470,470 200,140 450,260 750,360 310,90 650,190 1040,280 380,90 750,210 1110,360 370,150 690,350 980,600 280,250 510,550 680,920 170,360 250,800 250,1320 0,440 -90,850 -270,1220 -190,360 -440,680 -760,950 -330,280 -710,490 -1150,630 -440,150 -910,230 -1420,230 -480,0 -920,-60 -1310,-170 -400,-120 -760,-260 -1080,-430 -320,-180 -600,-370 -840,-580 -240,-210 -440,-410 -590,-620l1040 -950zm7960 -3100c0,-310 0,-590 0,-820 0,-230 0,-470 -10,-730l1320 0 40 1020c70,-100 170,-210 310,-340 130,-130 300,-260 500,-390 200,-120 430,-220 690,-310 270,-90 580,-130 920,-130 560,0 1030,100 1440,310 400,200 740,480 1000,820 270,350 470,750 590,1200 130,450 200,930 200,1430 0,640 -110,1200 -330,1670 -220,470 -510,860 -860,1160 -360,310 -750,540 -1180,690 -440,150 -870,220 -1280,220 -490,0 -870,-50 -1160,-150 -290,-90 -570,-200 -820,-310l0 3310 -1370 0 0 -8650zm1370 4040c160,130 400,260 700,380 310,120 690,180 1150,180 350,0 670,-60 960,-190 290,-130 540,-300 750,-530 210,-240 370,-500 490,-810 110,-310 160,-640 160,-1010 0,-350 -30,-680 -110,-980 -80,-310 -200,-580 -370,-820 -170,-230 -380,-420 -650,-560 -270,-130 -590,-200 -980,-200 -490,0 -910,130 -1260,400 -350,270 -590,670 -740,1190 -50,160 -80,340 -90,530 -10,190 -10,390 -10,590l0 1830zm10630 1760c-560,0 -1060,-100 -1520,-300 -460,-200 -860,-470 -1190,-820 -330,-350 -590,-750 -780,-1200 -190,-460 -290,-950 -290,-1470 0,-520 100,-1010 290,-1460 190,-460 450,-860 780,-1210 330,-340 730,-620 1190,-820 460,-200 960,-300 1520,-300 540,0 1040,100 1500,300 460,200 860,480 1190,820 340,350 610,750 790,1210 190,450 290,940 290,1460 0,520 -100,1010 -290,1470 -180,450 -450,850 -790,1200 -330,350 -730,620 -1190,820 -460,200 -960,300 -1500,300zm0 -1200c360,0 700,-70 990,-220 300,-150 550,-340 750,-580 210,-240 360,-520 470,-830 110,-310 160,-630 160,-960 0,-320 -50,-630 -160,-940 -110,-310 -260,-590 -470,-840 -210,-240 -460,-440 -760,-590 -290,-150 -620,-220 -980,-220 -370,0 -700,70 -1000,220 -300,150 -550,340 -750,580 -210,250 -360,520 -470,830 -110,310 -160,630 -160,960 0,330 50,650 160,950 110,310 270,590 470,830 210,250 460,440 760,590 290,150 620,220 990,220zm3570 2530c120,100 250,170 390,230 140,70 300,100 500,100 360,0 600,-170 730,-520 140,-340 200,-890 200,-1650l0 -6840 1380 0 0 7230c0,390 -20,760 -80,1120 -60,350 -160,670 -310,950 -160,270 -380,490 -660,660 -290,160 -660,240 -1120,240 -380,0 -700,-60 -960,-180 -260,-120 -470,-250 -640,-380l570 -960zm1730 -11500l1550 0 0 1550 -1550 0 0 -1550zm9940 8910c-80,90 -200,210 -370,350 -160,150 -370,290 -630,420 -260,130 -570,250 -920,340 -360,100 -760,150 -1210,150 -550,0 -1060,-90 -1520,-280 -460,-180 -850,-440 -1180,-780 -320,-340 -580,-740 -760,-1210 -180,-470 -260,-990 -260,-1560 0,-530 80,-1010 260,-1470 170,-450 410,-850 730,-1180 320,-330 690,-600 1130,-790 430,-190 910,-290 1430,-290 620,0 1140,120 1580,350 440,240 800,550 1080,940 290,390 490,830 630,1330 130,500 190,1020 190,1570l-5620 0c10,310 80,600 200,870 130,270 300,500 520,690 210,190 460,350 730,460 280,110 570,170 880,170 600,0 1100,-100 1490,-310 380,-200 660,-400 840,-600l780 830zm-1240 -3140c-40,-550 -240,-1020 -580,-1410 -350,-390 -840,-590 -1480,-590 -320,0 -620,60 -880,170 -260,120 -480,260 -670,450 -180,180 -320,390 -430,630 -100,240 -150,490 -160,750l4200 0zm2960 -1400c0,-310 0,-590 0,-820 0,-230 -10,-470 -20,-730l1320 0 50 1080c90,-130 200,-260 340,-410 130,-150 290,-280 490,-410 190,-120 420,-220 680,-300 260,-80 550,-130 880,-130 930,0 1620,280 2070,820 450,540 680,1280 680,2210l0 4280 -1380 0 0 -4180c0,-660 -150,-1150 -430,-1460 -290,-310 -690,-470 -1210,-470 -400,0 -740,80 -1000,250 -270,160 -480,370 -640,630 -160,260 -270,560 -340,890 -80,330 -110,670 -110,1020l0 3320 -1380 0 0 -5590zm8310 -4370l1550 0 0 1550 -1550 0 0 -1550zm90 2820l1380 0 0 7140 -1380 0 0 -7140zm6120 1550c0,-310 0,-590 0,-820 0,-230 0,-470 -10,-730l1320 0 40 1020c70,-100 180,-210 310,-340 130,-130 300,-260 500,-390 200,-120 430,-220 700,-310 260,-90 570,-130 920,-130 550,0 1030,100 1430,310 400,200 740,480 1000,820 270,350 470,750 600,1200 120,450 190,930 190,1430 0,640 -110,1200 -330,1670 -220,470 -510,860 -860,1160 -350,310 -750,540 -1180,690 -440,150 -860,220 -1280,220 -480,0 -870,-50 -1160,-150 -290,-90 -570,-200 -820,-310l0 3310 -1370 0 0 -8650zm1370 4040c160,130 400,260 700,380 310,120 690,180 1150,180 350,0 670,-60 960,-190 290,-130 540,-300 750,-530 210,-240 370,-500 490,-810 110,-310 170,-640 170,-1010 0,-350 -40,-680 -120,-980 -80,-310 -200,-580 -370,-820 -170,-230 -380,-420 -650,-560 -260,-130 -590,-200 -980,-200 -490,0 -910,130 -1260,400 -350,270 -590,670 -730,1190 -60,160 -90,340 -100,530 -10,190 -10,390 -10,590l0 1830zm10630 1760c-560,0 -1060,-100 -1520,-300 -460,-200 -860,-470 -1190,-820 -330,-350 -590,-750 -780,-1200 -190,-460 -290,-950 -290,-1470 0,-520 100,-1010 290,-1460 190,-460 450,-860 780,-1210 330,-340 730,-620 1190,-820 460,-200 960,-300 1520,-300 540,0 1040,100 1500,300 460,200 860,480 1200,820 330,350 600,750 790,1210 190,450 280,940 280,1460 0,520 -90,1010 -280,1470 -190,450 -460,850 -790,1200 -340,350 -740,620 -1200,820 -460,200 -960,300 -1500,300zm0 -1200c370,0 700,-70 990,-220 300,-150 550,-340 760,-580 200,-240 360,-520 460,-830 110,-310 160,-630 160,-960 0,-320 -50,-630 -160,-940 -100,-310 -260,-590 -470,-840 -210,-240 -460,-440 -750,-590 -300,-150 -620,-220 -990,-220 -370,0 -700,70 -1000,220 -300,150 -550,340 -750,580 -210,250 -360,520 -470,830 -110,310 -160,630 -160,960 0,330 50,650 160,950 110,310 270,590 480,830 210,250 460,440 750,590 290,150 620,220 990,220zm4090 -6150l1580 0 2230 5570 2200 -5570 1490 0 -3050 7140 -1380 0 -3070 -7140zm6800 8680c120,100 250,170 390,230 140,70 300,100 500,100 350,0 600,-170 730,-520 140,-340 200,-890 200,-1650l0 -6840 1380 0 0 7230c0,390 -30,760 -80,1120 -60,350 -160,670 -320,950 -150,270 -370,490 -660,660 -280,160 -660,240 -1120,240 -370,0 -690,-60 -950,-180 -270,-120 -480,-250 -640,-380l570 -960zm1730 -11500l1550 0 0 1550 -1550 0 0 -1550zm9940 8910c-80,90 -210,210 -370,350 -160,150 -380,290 -640,420 -260,130 -560,250 -920,340 -350,100 -750,150 -1200,150 -550,0 -1060,-90 -1520,-280 -460,-180 -850,-440 -1180,-780 -330,-340 -580,-740 -760,-1210 -180,-470 -270,-990 -270,-1560 0,-530 90,-1010 260,-1470 180,-450 420,-850 740,-1180 320,-330 690,-600 1130,-790 430,-190 910,-290 1430,-290 610,0 1140,120 1580,350 440,240 800,550 1080,940 280,390 490,830 620,1330 140,500 200,1020 200,1570l-5630 0c10,310 80,600 210,870 130,270 300,500 510,690 220,190 460,350 740,460 280,110 570,170 870,170 610,0 1100,-100 1490,-310 390,-200 670,-400 850,-600l780 830zm-1240 -3140c-40,-550 -240,-1020 -590,-1410 -340,-390 -840,-590 -1470,-590 -330,0 -620,60 -880,170 -260,120 -480,260 -670,450 -180,180 -330,390 -430,630 -100,240 -160,490 -170,750l4210 0zm2960 -1490c0,-300 0,-550 0,-770 0,-220 -10,-450 -20,-690l1320 0 50 1150c80,-120 180,-250 320,-400 130,-150 290,-290 480,-410 190,-120 410,-230 660,-310 250,-90 540,-130 870,-130 150,0 290,10 420,30 130,20 250,50 360,90l-310 1290c-180,-70 -420,-110 -700,-110 -300,0 -570,60 -820,170 -250,110 -470,270 -660,470 -180,200 -320,430 -430,690 -110,270 -160,550 -160,850l0 3760 -1380 0 0 -5680zm12080 4630c-80,90 -200,210 -370,350 -160,150 -370,290 -630,420 -260,130 -570,250 -920,340 -360,100 -760,150 -1210,150 -550,0 -1060,-90 -1520,-280 -460,-180 -850,-440 -1180,-780 -320,-340 -580,-740 -760,-1210 -170,-470 -260,-990 -260,-1560 0,-530 80,-1010 260,-1470 170,-450 420,-850 730,-1180 320,-330 700,-600 1130,-790 440,-190 910,-290 1430,-290 620,0 1140,120 1580,350 440,240 800,550 1090,940 280,390 480,830 620,1330 130,500 200,1020 200,1570l-5630 0c10,310 80,600 200,870 130,270 300,500 520,690 210,190 460,350 730,460 280,110 570,170 880,170 600,0 1100,-100 1490,-310 390,-200 670,-400 840,-600l780 830zm-1240 -3140c-40,-550 -240,-1020 -580,-1410 -350,-390 -840,-590 -1480,-590 -320,0 -620,60 -880,170 -260,120 -480,260 -660,450 -190,180 -330,390 -430,630 -110,240 -160,490 -170,750l4200 0zm2960 -1400c0,-310 0,-590 0,-820 0,-230 -10,-470 -20,-730l1320 0 50 1080c90,-130 200,-260 340,-410 130,-150 290,-280 490,-410 190,-120 420,-220 680,-300 260,-80 560,-130 880,-130 930,0 1620,280 2070,820 450,540 680,1280 680,2210l0 4280 -1380 0 0 -4180c0,-660 -150,-1150 -430,-1460 -290,-310 -690,-470 -1210,-470 -400,0 -740,80 -1000,250 -270,160 -480,370 -640,630 -160,260 -270,560 -340,890 -70,330 -110,670 -110,1020l0 3320 -1380 0 0 -5590zm6580 7130c120,100 250,170 390,230 140,70 300,100 500,100 360,0 600,-170 740,-520 130,-340 190,-890 190,-1650l0 -6840 1390 0 0 7230c0,390 -30,760 -90,1120 -60,350 -160,670 -310,950 -160,270 -380,490 -660,660 -290,160 -660,240 -1120,240 -380,0 -700,-60 -960,-180 -260,-120 -470,-250 -640,-380l570 -960zm1730 -11500l1550 0 0 1550 -1550 0 0 -1550zm9940 8910c-80,90 -200,210 -370,350 -160,150 -370,290 -630,420 -260,130 -570,250 -920,340 -360,100 -760,150 -1210,150 -550,0 -1060,-90 -1520,-280 -460,-180 -850,-440 -1180,-780 -320,-340 -580,-740 -760,-1210 -180,-470 -260,-990 -260,-1560 0,-530 80,-1010 260,-1470 170,-450 420,-850 730,-1180 320,-330 700,-600 1130,-790 430,-190 910,-290 1430,-290 620,0 1140,120 1580,350 440,240 800,550 1080,940 290,390 490,830 630,1330 130,500 200,1020 200,1570l-5630 0c10,310 80,600 200,870 130,270 300,500 520,690 210,190 460,350 730,460 280,110 570,170 880,170 600,0 1100,-100 1490,-310 380,-200 670,-400 840,-600l780 830zm-1240 -3140c-40,-550 -240,-1020 -580,-1410 -350,-390 -840,-590 -1480,-590 -320,0 -620,60 -880,170 -260,120 -480,260 -670,450 -180,180 -320,390 -420,630 -110,240 -160,490 -170,750l4200 0zm2960 -1400c0,-310 0,-590 0,-820 0,-230 -10,-470 -20,-730l1320 0 50 1080c80,-130 190,-260 320,-410 130,-150 290,-280 480,-410 180,-120 400,-220 650,-300 250,-80 540,-130 860,-130 560,0 1010,110 1380,330 360,220 640,540 850,960 280,-330 640,-630 1050,-890 410,-270 930,-400 1540,-400 920,0 1600,280 2040,830 440,540 660,1280 660,2200l0 4280 -1380 0 0 -4180c0,-660 -130,-1150 -390,-1460 -260,-310 -640,-470 -1140,-470 -290,0 -550,60 -790,180 -240,110 -450,270 -630,470 -180,190 -320,420 -420,680 -90,260 -140,530 -140,820l0 3960 -1380 0 0 -4180c0,-660 -130,-1150 -390,-1460 -260,-310 -640,-470 -1130,-470 -380,0 -700,80 -950,250 -260,160 -460,370 -620,630 -160,260 -270,560 -340,900 -70,340 -100,670 -100,1010l0 3320 -1380 0 0 -5590z"/>
   <path class="fil0" d="M246010 26730c520,0 1040,140 1540,410 500,270 890,660 1170,1160 280,510 420,1030 420,1580 0,540 -130,1060 -410,1560 -280,500 -660,880 -1160,1160 -500,280 -1020,410 -1560,410 -550,0 -1070,-130 -1570,-410 -490,-280 -880,-660 -1160,-1160 -280,-500 -420,-1020 -420,-1560 0,-550 150,-1070 430,-1580 280,-500 670,-890 1170,-1160 500,-270 1020,-410 1550,-410zm0 520c-440,0 -870,120 -1290,340 -420,230 -750,550 -980,970 -240,420 -360,860 -360,1320 0,450 120,880 350,1300 230,410 560,740 970,970 420,230 850,340 1310,340 450,0 880,-110 1300,-340 420,-230 740,-560 970,-970 230,-420 340,-850 340,-1300 0,-460 -110,-900 -350,-1320 -230,-420 -560,-740 -980,-970 -420,-220 -850,-340 -1280,-340zm-1380 4360l0 -3380 1160 0c400,0 680,40 860,100 180,60 320,170 430,320 100,160 160,320 160,500 0,240 -90,460 -270,640 -180,190 -410,290 -700,310 120,50 210,110 280,180 140,130 310,350 500,670l420 660 -670 0 -300 -530c-230,-420 -420,-680 -570,-790 -100,-80 -240,-110 -440,-110l-320 0 0 1430 -540 0zm540 -1900l670 0c310,0 530,-50 640,-140 120,-100 180,-220 180,-370 0,-100 -30,-190 -90,-270 -50,-80 -130,-140 -230,-180 -100,-40 -280,-60 -550,-60l-620 0 0 1020z"/>
  </g>
 </g>
</svg>
